HIERARCHY
ROOT Hips
{
    OFFSET 0.000000 0.000000 0.000000
    CHANNELS 6 Xposition Yposition Zposition Zrotation Xrotation Yrotation
    JOINT Spine
    {
        OFFSET -0.000000 7.531363 0.000000
        CHANNELS 3 Zrotation Xrotation Yrotation
        JOINT Spine1
        {
            OFFSET -0.000000 18.201006 0.000000
            CHANNELS 3 Zrotation Xrotation Yrotation
            JOINT Neck
            {
                OFFSET -0.000000 18.126257 1.647842
                CHANNELS 3 Zrotation Xrotation Yrotation
                JOINT Head
                {
                    OFFSET -0.000000 12.858423 -1.836918
                    CHANNELS 3 Zrotation Xrotation Yrotation
                    End Site
                    {
                        OFFSET -0.000000 22.961470 0.000000
                    }
                }
            }
            JOINT LeftShoulder
            {
                OFFSET 3.667172 16.561186 -0.216348
                CHANNELS 3 Zrotation Xrotation Yrotation
                JOINT LeftArm
                {
                    OFFSET 9.930305 0.000000 0.000000
                    CHANNELS 3 Zrotation Xrotation Yrotation
                    JOINT LeftForeArm
                    {
                        OFFSET 26.018173 0.000000 0.000000
                        CHANNELS 3 Zrotation Xrotation Yrotation
                        JOINT LeftHand
                        {
                            OFFSET 24.998920 0.000000 0.000000
                            CHANNELS 3 Zrotation Xrotation Yrotation
                            End Site
                            {
                                OFFSET 13.776883 0.000000 0.000000
                            }
                        }
                    }
                }
            }
            JOINT RightShoulder
            {
                OFFSET -3.672976 16.561186 -0.216348
                CHANNELS 3 Zrotation Xrotation Yrotation
                JOINT RightArm
                {
                    OFFSET -9.930305 0.000000 0.000000
                    CHANNELS 3 Zrotation Xrotation Yrotation
                    JOINT RightForeArm
                    {
                        OFFSET -26.018173 0.000000 0.000000
                        CHANNELS 3 Zrotation Xrotation Yrotation
                        JOINT RightHand
                        {
                            OFFSET -24.998920 0.000000 0.000000
                            CHANNELS 3 Zrotation Xrotation Yrotation
                            End Site
                            {
                                OFFSET -13.776883 0.000000 0.000000
                            }
                        }
                    }
                }
            }
        }
    }
    JOINT LeftUpLeg
    {
        OFFSET 9.184588 0.000000 0.000000
        CHANNELS 3 Zrotation Xrotation Yrotation
        JOINT LeftLeg
        {
            OFFSET -0.000000 -39.614780 0.000000
            CHANNELS 3 Zrotation Xrotation Yrotation
            JOINT LeftFoot
            {
                OFFSET -0.000000 -41.356068 0.000000
                CHANNELS 3 Zrotation Xrotation Yrotation
                JOINT LeftToeBase
                {
                    OFFSET -0.000000 -5.969982 13.776883
                    CHANNELS 3 Zrotation Xrotation Yrotation
                    End Site
                    {
                        OFFSET -0.000000 0.000000 3.673835
                    }
                }
            }
        }
    }
    JOINT RightUpLeg
    {
        OFFSET -9.184588 0.000000 0.000000
        CHANNELS 3 Zrotation Xrotation Yrotation
        JOINT RightLeg
        {
            OFFSET -0.000000 -39.614780 0.000000
            CHANNELS 3 Zrotation Xrotation Yrotation
            JOINT RightFoot
            {
                OFFSET -0.000000 -41.356068 0.000000
                CHANNELS 3 Zrotation Xrotation Yrotation
                JOINT RightToeBase
                {
                    OFFSET -0.000000 -5.969982 13.776883
                    CHANNELS 3 Zrotation Xrotation Yrotation
                    End Site
                    {
                        OFFSET -0.000000 0.000000 3.673835
                    }
                }
            }
        }
    }
}
MOTION
Frames:    11
Frame Time:    0.008333
10.292628    86.985138    -20.514412    -2.493671    1.963403    4.346734    1.141400    -7.714336    0.923350    -0.568103    1.915561    0.855864    -1.641127    15.023332    -3.161444    -0.592715    17.060699    -3.269457    6.026824    4.984492    4.294194    -48.396614    63.729454    -32.089436    0.253044    -6.867635    -17.628298    1.674373    -6.741348    6.023708    0.622539    7.196017    1.860379    71.519188    55.435913    3.685550    -9.616387    -13.932652    12.790123    6.728880    -12.555954    5.675959    1.775041    -1.641246    1.725893    -6.192455    8.531484    -5.505612    13.849385    -18.030716    3.582877    0.000000    0.000000    0.000000    1.260536    -5.849768    -0.754769    -0.475598    14.268919    0.705586    -1.995573    -18.266420    -3.708356    0.000000    0.000000    0.000000    
10.304269    86.984550    -20.497391    -2.497529    1.969009    4.346731    1.165191    -7.744879    0.922398    -0.571806    1.922093    0.853193    -1.634778    14.990977    -3.155499    -0.615785    17.120003    -3.262512    6.020059    4.984311    4.307652    -48.394062    63.719406    -32.096733    0.236744    -6.742828    -17.524221    1.683090    -6.621653    5.817378    0.614148    7.203540    1.871810    71.515656    55.424309    3.711169    -9.618385    -13.914362    12.820163    6.719948    -12.535614    5.670409    1.773663    -1.637445    1.746052    -6.194523    8.538377    -5.515563    13.827368    -18.032488    3.576868    0.000000    0.000000    0.000000    1.257438    -5.847641    -0.762306    -0.478550    14.275846    0.705601    -1.988973    -18.268290    -3.701217    0.000000    0.000000    0.000000    
10.310017    86.983170    -20.489780    -2.498622    1.974479    4.350721    1.177022    -7.759680    0.920990    -0.573525    1.920676    0.850856    -1.639180    14.987052    -3.152482    -0.616181    17.128225    -3.259209    6.015751    4.985813    4.313614    -48.385002    63.721756    -32.109447    0.235494    -6.847621    -17.585003    1.694529    -6.723039    6.015221    0.613587    7.210294    1.877775    71.510834    55.415066    3.724680    -9.623338    -13.899277    12.824206    6.721170    -12.519381    5.672626    1.771878    -1.624468    1.628255    -6.211846    8.499187    -5.386915    13.825508    -18.034073    3.554199    0.000000    0.000000    0.000000    1.254384    -5.851903    -0.775207    -0.482870    14.285830    0.718267    -1.975626    -18.277512    -3.700901    0.000000    0.000000    0.000000    
10.316130    86.983147    -20.480165    -2.496244    1.971583    4.350165    1.190474    -7.770923    0.920000    -0.582749    1.928623    0.848984    -1.644640    14.980835    -3.148035    -0.611425    17.132168    -3.254418    6.017234    4.984843    4.323990    -48.379620    63.719624    -32.120342    0.232221    -6.731331    -17.500635    1.698016    -6.610128    5.817855    0.613877    7.206882    1.887913    71.517670    55.414974    3.725052    -9.628486    -13.897645    12.832734    6.719798    -12.516663    5.670068    1.766938    -1.610739    1.629498    -6.215906    8.490703    -5.368979    13.819539    -18.031612    3.535705    0.000000    0.000000    0.000000    1.248032    -5.847645    -0.783512    -0.484965    14.296853    0.735931    -1.970582    -18.288755    -3.712504    0.000000    0.000000    0.000000    
10.321813    86.983070    -20.473532    -2.496121    1.975064    4.351702    1.207617    -7.780972    0.919024    -0.594322    1.927742    0.846966    -1.650100    14.971354    -3.144373    -0.606552    17.138588    -3.250400    6.018139    4.978263    4.338677    -48.375813    63.720768    -32.128311    0.225869    -6.849031    -17.575878    1.707089    -6.724887    6.042402    0.616281    7.209639    1.899787    71.593994    55.643055    3.670032    -9.797508    -14.026392    12.793547    6.788454    -12.628209    5.657206    1.765127    -1.610749    1.623706    -6.219950    8.493093    -5.368618    13.816182    -18.029005    3.536630    0.000000    0.000000    0.000000    1.244120    -5.850863    -0.775220    -0.482376    14.307196    0.736504    -1.979867    -18.289059    -3.724925    0.000000    0.000000    0.000000    
10.326875    86.982498    -20.464792    -2.498218    1.970433    4.353366    1.224806    -7.790267    0.917501    -0.602504    1.935867    0.844356    -1.644353    14.958867    -3.141232    -0.620409    17.146227    -3.246845    6.023309    4.974302    4.353844    -48.365383    63.718819    -32.148304    0.213921    -6.836436    -17.570026    1.727256    -6.713095    6.041641    0.616816    7.213137    1.911850    71.519112    55.400932    3.738006    -9.648818    -13.903988    12.864194    6.723549    -12.519656    5.641374    1.764259    -1.603487    1.631925    -6.217486    8.501968    -5.389428    13.841006    -18.040636    3.557085    0.000000    0.000000    0.000000    1.243516    -5.846193    -0.771367    -0.480232    14.318503    0.733241    -1.970536    -18.294083    -3.727033    0.000000    0.000000    0.000000    
10.331494    86.981537    -20.456318    -2.499580    1.964883    4.355663    1.237897    -7.796306    0.916983    -0.603989    1.939770    0.842856    -1.650549    14.947165    -3.135796    -0.618292    17.157257    -3.240894    6.019329    4.970144    4.365838    -48.357616    63.709969    -32.165001    0.201329    -6.830990    -17.557140    1.744830    -6.708751    6.036689    0.613203    7.219955    1.918238    71.512947    55.396446    3.750491    -9.653943    -13.907605    12.879298    6.720346    -12.521120    5.649993    1.763594    -1.593289    1.632323    -6.218549    8.504203    -5.383435    13.842367    -18.051291    3.549572    0.000000    0.000000    0.000000    1.243974    -5.842442    -0.773465    -0.483826    14.332191    0.722592    -1.967703    -18.302916    -3.714195    0.000000    0.000000    0.000000    
10.335855    86.980209    -20.450050    -2.499351    1.964176    4.360658    1.252688    -7.801647    0.913339    -0.616412    1.937630    0.838364    -1.631606    14.940847    -3.129503    -0.642425    17.156837    -3.234273    6.025877    4.971317    4.382948    -48.347511    63.706470    -32.186684    0.198080    -6.844759    -17.557646    1.748227    -6.722816    6.038489    0.621752    7.225858    1.933679    71.506981    55.389893    3.750827    -9.662313    -13.909863    12.899297    6.724351    -12.520060    5.659311    1.759364    -1.594523    1.629696    -6.215751    8.516088    -5.380429    13.831256    -18.058834    3.546074    0.000000    0.000000    0.000000    1.242857    -5.847172    -0.779114    -0.487322    14.350291    0.734629    -1.967800    -18.304539    -3.726143    0.000000    0.000000    0.000000    
10.339415    86.978256    -20.441948    -2.499659    1.960143    4.363122    1.262121    -7.810279    0.911761    -0.617542    1.943930    0.836076    -1.627705    14.926580    -3.124153    -0.648964    17.166416    -3.228436    6.027936    4.966307    4.391907    -48.357483    63.706902    -32.183311    0.207201    -6.853894    -17.565004    1.753396    -6.730311    6.035435    0.623707    7.229364    1.947917    71.501862    55.384579    3.753933    -9.668191    -13.913266    12.911685    6.733462    -12.520591    5.672439    1.755795    -1.590322    1.625868    -6.212526    8.524549    -5.384500    13.836193    -18.064129    3.555533    0.000000    0.000000    0.000000    1.243274    -5.842127    -0.766693    -0.487027    14.357492    0.703459    -1.946168    -18.308456    -3.713202    0.000000    0.000000    0.000000    
10.343710    86.976532    -20.432726    -2.495575    1.950121    4.368424    1.271016    -7.810837    0.910284    -0.620254    1.947817    0.834028    -1.629011    14.919537    -3.120213    -0.651270    17.162146    -3.224216    6.021237    4.963559    4.402677    -48.347763    63.708530    -32.188091    0.218387    -6.743392    -17.509676    1.745651    -6.621441    5.847406    0.617097    7.234411    1.948654    71.492416    55.376957    3.770524    -9.579937    -14.016735    12.937009    6.558318    -12.640673    5.675891    1.746281    -1.577242    1.611753    -6.207914    8.528547    -5.380369    13.856503    -18.070375    3.561845    0.000000    0.000000    0.000000    1.241215    -5.830456    -0.772275    -0.494696    14.365894    0.709792    -1.954529    -18.318726    -3.717445    0.000000    0.000000    0.000000    
10.346925    86.974739    -20.425793    -2.494780    1.947913    4.378318    1.280328    -7.817802    0.907569    -0.623750    1.949924    0.830666    -1.631747    14.913201    -3.118559    -0.646664    17.159349    -3.222413    6.023344    4.959485    4.403556    -48.348484    63.711868    -32.188320    0.232182    -6.761559    -17.528631    1.725696    -6.638418    5.851718    0.616685    7.236606    1.955624    71.489929    55.363735    3.772776    -9.580461    -14.008094    12.948217    6.559448    -12.630974    5.675229    1.711283    -1.547260    1.698256    -6.131199    8.483226    -5.420650    13.820896    -18.092995    3.491260    0.000000    0.000000    0.000000    1.240245    -5.828330    -0.779524    -0.497288    14.375640    0.705904    -1.947728    -18.326447    -3.716565    0.000000    0.000000    0.000000    
